<svg width="1134" height="344" viewBox="0 0 1134 344" fill="none" xmlns="http://www.w3.org/2000/svg">
<mask id="mask0" mask-type="alpha" maskUnits="userSpaceOnUse" x="0" y="0" width="1134" height="344">
<rect width="1134" height="344" rx="6" fill="#2B5468"/>
</mask>
<g mask="url(#mask0)">
<rect x="-5" width="1139" height="344" rx="6" fill="#1D4354"/>
<circle cx="10" cy="299" r="95" fill="#FFCC0D"/>
<circle cx="1118" cy="254" r="254" fill="#2B5468"/>
<circle cx="105" cy="83" r="10" fill="#F3756C"/>
<path fill-rule="evenodd" clip-rule="evenodd" d="M1132 4.96575C1132 5.83123 1132.7 6.5333 1133.57 6.5333C1134.43 6.5333 1135.13 5.83123 1135.13 4.96575C1135.13 4.09932 1134.43 3.39819 1133.57 3.39819C1132.7 3.39819 1132 4.09932 1132 4.96575Z" fill="#E0E0E0"/>
<path fill-rule="evenodd" clip-rule="evenodd" d="M1121.34 4.96575C1121.34 5.83123 1122.04 6.5333 1122.91 6.5333C1123.77 6.5333 1124.47 5.83123 1124.47 4.96575C1124.47 4.09932 1123.77 3.39819 1122.91 3.39819C1122.04 3.39819 1121.34 4.09932 1121.34 4.96575Z" fill="#E0E0E0"/>
<path fill-rule="evenodd" clip-rule="evenodd" d="M1111.31 4.96575C1111.31 5.83123 1112.01 6.5333 1112.87 6.5333C1113.74 6.5333 1114.44 5.83123 1114.44 4.96575C1114.44 4.09932 1113.74 3.39819 1112.87 3.39819C1112.01 3.39819 1111.31 4.09932 1111.31 4.96575Z" fill="#E0E0E0"/>
<path fill-rule="evenodd" clip-rule="evenodd" d="M1100.65 4.96575C1100.65 5.83123 1101.35 6.5333 1102.21 6.5333C1103.08 6.5333 1103.78 5.83123 1103.78 4.96575C1103.78 4.09932 1103.08 3.39819 1102.21 3.39819C1101.35 3.39819 1100.65 4.09932 1100.65 4.96575Z" fill="#E0E0E0"/>
<path fill-rule="evenodd" clip-rule="evenodd" d="M1089.99 4.96575C1089.99 5.83123 1090.69 6.5333 1091.55 6.5333C1092.42 6.5333 1093.12 5.83123 1093.12 4.96575C1093.12 4.09932 1092.42 3.39819 1091.55 3.39819C1090.69 3.39819 1089.99 4.09932 1089.99 4.96575Z" fill="#E0E0E0"/>
<path fill-rule="evenodd" clip-rule="evenodd" d="M1079.96 4.96575C1079.96 5.83123 1080.66 6.5333 1081.52 6.5333C1082.39 6.5333 1083.09 5.83123 1083.09 4.96575C1083.09 4.09932 1082.39 3.39819 1081.52 3.39819C1080.66 3.39819 1079.96 4.09932 1079.96 4.96575Z" fill="#E0E0E0"/>
<path fill-rule="evenodd" clip-rule="evenodd" d="M1069.3 4.96575C1069.3 5.83123 1070 6.5333 1070.86 6.5333C1071.73 6.5333 1072.43 5.83123 1072.43 4.96575C1072.43 4.09932 1071.73 3.39819 1070.86 3.39819C1070 3.39819 1069.3 4.09932 1069.3 4.96575Z" fill="#E0E0E0"/>
<path fill-rule="evenodd" clip-rule="evenodd" d="M1059.26 4.96575C1059.26 5.83123 1059.97 6.5333 1060.83 6.5333C1061.7 6.5333 1062.4 5.83123 1062.4 4.96575C1062.4 4.09932 1061.7 3.39819 1060.83 3.39819C1059.97 3.39819 1059.26 4.09932 1059.26 4.96575Z" fill="#E0E0E0"/>
<path fill-rule="evenodd" clip-rule="evenodd" d="M1048.6 4.96575C1048.6 5.83123 1049.31 6.5333 1050.17 6.5333C1051.04 6.5333 1051.74 5.83123 1051.74 4.96575C1051.74 4.09932 1051.04 3.39819 1050.17 3.39819C1049.31 3.39819 1048.6 4.09932 1048.6 4.96575Z" fill="#E0E0E0"/>
<path fill-rule="evenodd" clip-rule="evenodd" d="M1132 14.998C1132 15.8644 1132.7 16.5655 1133.57 16.5655C1134.43 16.5655 1135.13 15.8644 1135.13 14.998C1135.13 14.1315 1134.43 13.4304 1133.57 13.4304C1132.7 13.4304 1132 14.1315 1132 14.998Z" fill="#E0E0E0"/>
<path fill-rule="evenodd" clip-rule="evenodd" d="M1121.34 14.998C1121.34 15.8644 1122.04 16.5655 1122.91 16.5655C1123.77 16.5655 1124.47 15.8644 1124.47 14.998C1124.47 14.1315 1123.77 13.4304 1122.91 13.4304C1122.04 13.4304 1121.34 14.1315 1121.34 14.998Z" fill="#E0E0E0"/>
<path fill-rule="evenodd" clip-rule="evenodd" d="M1111.31 14.998C1111.31 15.8644 1112.01 16.5655 1112.87 16.5655C1113.74 16.5655 1114.44 15.8644 1114.44 14.998C1114.44 14.1315 1113.74 13.4304 1112.87 13.4304C1112.01 13.4304 1111.31 14.1315 1111.31 14.998Z" fill="#E0E0E0"/>
<path fill-rule="evenodd" clip-rule="evenodd" d="M1100.65 14.998C1100.65 15.8644 1101.35 16.5655 1102.21 16.5655C1103.08 16.5655 1103.78 15.8644 1103.78 14.998C1103.78 14.1315 1103.08 13.4304 1102.21 13.4304C1101.35 13.4304 1100.65 14.1315 1100.65 14.998Z" fill="#E0E0E0"/>
<path fill-rule="evenodd" clip-rule="evenodd" d="M1089.99 14.998C1089.99 15.8644 1090.69 16.5655 1091.55 16.5655C1092.42 16.5655 1093.12 15.8644 1093.12 14.998C1093.12 14.1315 1092.42 13.4304 1091.55 13.4304C1090.69 13.4304 1089.99 14.1315 1089.99 14.998Z" fill="#E0E0E0"/>
<path fill-rule="evenodd" clip-rule="evenodd" d="M1079.96 14.998C1079.96 15.8644 1080.66 16.5655 1081.52 16.5655C1082.39 16.5655 1083.09 15.8644 1083.09 14.998C1083.09 14.1315 1082.39 13.4304 1081.52 13.4304C1080.66 13.4304 1079.96 14.1315 1079.96 14.998Z" fill="#E0E0E0"/>
<path fill-rule="evenodd" clip-rule="evenodd" d="M1069.3 14.998C1069.3 15.8644 1070 16.5655 1070.86 16.5655C1071.73 16.5655 1072.43 15.8644 1072.43 14.998C1072.43 14.1315 1071.73 13.4304 1070.86 13.4304C1070 13.4304 1069.3 14.1315 1069.3 14.998Z" fill="#E0E0E0"/>
<path fill-rule="evenodd" clip-rule="evenodd" d="M1059.26 14.998C1059.26 15.8644 1059.97 16.5655 1060.83 16.5655C1061.7 16.5655 1062.4 15.8644 1062.4 14.998C1062.4 14.1315 1061.7 13.4304 1060.83 13.4304C1059.97 13.4304 1059.26 14.1315 1059.26 14.998Z" fill="#E0E0E0"/>
<path fill-rule="evenodd" clip-rule="evenodd" d="M1048.6 14.998C1048.6 15.8644 1049.31 16.5655 1050.17 16.5655C1051.04 16.5655 1051.74 15.8644 1051.74 14.998C1051.74 14.1315 1051.04 13.4304 1050.17 13.4304C1049.31 13.4304 1048.6 14.1315 1048.6 14.998Z" fill="#E0E0E0"/>
<path fill-rule="evenodd" clip-rule="evenodd" d="M1038 4.74713C1038 5.66108 1038.7 6.40247 1039.55 6.40247C1040.41 6.40247 1041.1 5.66108 1041.1 4.74713C1041.1 3.83218 1040.41 3.0918 1039.55 3.0918C1038.7 3.0918 1038 3.83218 1038 4.74713Z" fill="#E0E0E0"/>
<path fill-rule="evenodd" clip-rule="evenodd" d="M1038 15.3466C1038 16.2043 1038.7 16.8984 1039.55 16.8984C1040.41 16.8984 1041.1 16.2043 1041.1 15.3466C1041.1 14.4888 1040.41 13.7947 1039.55 13.7947C1038.7 13.7947 1038 14.4888 1038 15.3466Z" fill="#E0E0E0"/>
<path fill-rule="evenodd" clip-rule="evenodd" d="M1132 25.6574C1132 26.5238 1132.7 27.225 1133.57 27.225C1134.43 27.225 1135.13 26.5238 1135.13 25.6574C1135.13 24.791 1134.43 24.0898 1133.57 24.0898C1132.7 24.0898 1132 24.791 1132 25.6574Z" fill="#E0E0E0"/>
<path fill-rule="evenodd" clip-rule="evenodd" d="M1121.34 25.6574C1121.34 26.5238 1122.04 27.225 1122.91 27.225C1123.77 27.225 1124.47 26.5238 1124.47 25.6574C1124.47 24.791 1123.77 24.0898 1122.91 24.0898C1122.04 24.0898 1121.34 24.791 1121.34 25.6574Z" fill="#E0E0E0"/>
<path fill-rule="evenodd" clip-rule="evenodd" d="M1111.31 25.6574C1111.31 26.5238 1112.01 27.225 1112.87 27.225C1113.74 27.225 1114.44 26.5238 1114.44 25.6574C1114.44 24.791 1113.74 24.0898 1112.87 24.0898C1112.01 24.0898 1111.31 24.791 1111.31 25.6574Z" fill="#E0E0E0"/>
<path fill-rule="evenodd" clip-rule="evenodd" d="M1100.65 25.6574C1100.65 26.5238 1101.35 27.225 1102.21 27.225C1103.08 27.225 1103.78 26.5238 1103.78 25.6574C1103.78 24.791 1103.08 24.0898 1102.21 24.0898C1101.35 24.0898 1100.65 24.791 1100.65 25.6574Z" fill="#E0E0E0"/>
<path fill-rule="evenodd" clip-rule="evenodd" d="M1089.99 25.6574C1089.99 26.5238 1090.69 27.225 1091.55 27.225C1092.42 27.225 1093.12 26.5238 1093.12 25.6574C1093.12 24.791 1092.42 24.0898 1091.55 24.0898C1090.69 24.0898 1089.99 24.791 1089.99 25.6574Z" fill="#E0E0E0"/>
<path fill-rule="evenodd" clip-rule="evenodd" d="M1079.96 25.6574C1079.96 26.5238 1080.66 27.225 1081.52 27.225C1082.39 27.225 1083.09 26.5238 1083.09 25.6574C1083.09 24.791 1082.39 24.0898 1081.52 24.0898C1080.66 24.0898 1079.96 24.791 1079.96 25.6574Z" fill="#E0E0E0"/>
<path fill-rule="evenodd" clip-rule="evenodd" d="M1069.3 25.6574C1069.3 26.5238 1070 27.225 1070.86 27.225C1071.73 27.225 1072.43 26.5238 1072.43 25.6574C1072.43 24.791 1071.73 24.0898 1070.86 24.0898C1070 24.0898 1069.3 24.791 1069.3 25.6574Z" fill="#E0E0E0"/>
<path fill-rule="evenodd" clip-rule="evenodd" d="M1059.26 25.6574C1059.26 26.5238 1059.97 27.225 1060.83 27.225C1061.7 27.225 1062.4 26.5238 1062.4 25.6574C1062.4 24.791 1061.7 24.0898 1060.83 24.0898C1059.97 24.0898 1059.26 24.791 1059.26 25.6574Z" fill="#E0E0E0"/>
<path fill-rule="evenodd" clip-rule="evenodd" d="M1048.6 25.6574C1048.6 26.5238 1049.31 27.225 1050.17 27.225C1051.04 27.225 1051.74 26.5238 1051.74 25.6574C1051.74 24.791 1051.04 24.0898 1050.17 24.0898C1049.31 24.0898 1048.6 24.791 1048.6 25.6574Z" fill="#E0E0E0"/>
<path fill-rule="evenodd" clip-rule="evenodd" d="M1132 36.3173C1132 37.1825 1132.7 37.8844 1133.57 37.8844C1134.43 37.8844 1135.13 37.1825 1135.13 36.3173C1135.13 35.4511 1134.43 34.7493 1133.57 34.7493C1132.7 34.7493 1132 35.4511 1132 36.3173Z" fill="#E0E0E0"/>
<path fill-rule="evenodd" clip-rule="evenodd" d="M1121.34 36.3173C1121.34 37.1825 1122.04 37.8844 1122.91 37.8844C1123.77 37.8844 1124.47 37.1825 1124.47 36.3173C1124.47 35.4511 1123.77 34.7493 1122.91 34.7493C1122.04 34.7493 1121.34 35.4511 1121.34 36.3173Z" fill="#E0E0E0"/>
<path fill-rule="evenodd" clip-rule="evenodd" d="M1111.31 36.3173C1111.31 37.1825 1112.01 37.8844 1112.87 37.8844C1113.74 37.8844 1114.44 37.1825 1114.44 36.3173C1114.44 35.4511 1113.74 34.7493 1112.87 34.7493C1112.01 34.7493 1111.31 35.4511 1111.31 36.3173Z" fill="#E0E0E0"/>
<path fill-rule="evenodd" clip-rule="evenodd" d="M1100.65 36.3173C1100.65 37.1825 1101.35 37.8844 1102.21 37.8844C1103.08 37.8844 1103.78 37.1825 1103.78 36.3173C1103.78 35.4511 1103.08 34.7493 1102.21 34.7493C1101.35 34.7493 1100.65 35.4511 1100.65 36.3173Z" fill="#E0E0E0"/>
<path fill-rule="evenodd" clip-rule="evenodd" d="M1089.99 36.3173C1089.99 37.1825 1090.69 37.8844 1091.55 37.8844C1092.42 37.8844 1093.12 37.1825 1093.12 36.3173C1093.12 35.4511 1092.42 34.7493 1091.55 34.7493C1090.69 34.7493 1089.99 35.4511 1089.99 36.3173Z" fill="#E0E0E0"/>
<path fill-rule="evenodd" clip-rule="evenodd" d="M1079.96 36.3173C1079.96 37.1825 1080.66 37.8844 1081.52 37.8844C1082.39 37.8844 1083.09 37.1825 1083.09 36.3173C1083.09 35.4511 1082.39 34.7493 1081.52 34.7493C1080.66 34.7493 1079.96 35.4511 1079.96 36.3173Z" fill="#E0E0E0"/>
<path fill-rule="evenodd" clip-rule="evenodd" d="M1069.3 36.3173C1069.3 37.1825 1070 37.8844 1070.86 37.8844C1071.73 37.8844 1072.43 37.1825 1072.43 36.3173C1072.43 35.4511 1071.73 34.7493 1070.86 34.7493C1070 34.7493 1069.3 35.4511 1069.3 36.3173Z" fill="#E0E0E0"/>
<path fill-rule="evenodd" clip-rule="evenodd" d="M1059.26 36.3173C1059.26 37.1825 1059.97 37.8844 1060.83 37.8844C1061.7 37.8844 1062.4 37.1825 1062.4 36.3173C1062.4 35.4511 1061.7 34.7493 1060.83 34.7493C1059.97 34.7493 1059.26 35.4511 1059.26 36.3173Z" fill="#E0E0E0"/>
<path fill-rule="evenodd" clip-rule="evenodd" d="M1048.6 36.3173C1048.6 37.1825 1049.31 37.8844 1050.17 37.8844C1051.04 37.8844 1051.74 37.1825 1051.74 36.3173C1051.74 35.4511 1051.04 34.7493 1050.17 34.7493C1049.31 34.7493 1048.6 35.4511 1048.6 36.3173Z" fill="#E0E0E0"/>
<path fill-rule="evenodd" clip-rule="evenodd" d="M1038 25.9507C1038 26.8657 1038.7 27.6061 1039.55 27.6061C1040.41 27.6061 1041.1 26.8657 1041.1 25.9507C1041.1 25.0358 1040.41 24.2954 1039.55 24.2954C1038.7 24.2954 1038 25.0358 1038 25.9507Z" fill="#E0E0E0"/>
<path fill-rule="evenodd" clip-rule="evenodd" d="M1038 35.9307C1038 36.7876 1038.7 37.4826 1039.55 37.4826C1040.41 37.4826 1041.1 36.7876 1041.1 35.9307C1041.1 35.073 1040.41 34.3779 1039.55 34.3779C1038.7 34.3779 1038 35.073 1038 35.9307Z" fill="#E0E0E0"/>
<path fill-rule="evenodd" clip-rule="evenodd" d="M1132 46.3493C1132 47.2157 1132.7 47.9168 1133.57 47.9168C1134.43 47.9168 1135.13 47.2157 1135.13 46.3493C1135.13 45.4829 1134.43 44.7817 1133.57 44.7817C1132.7 44.7817 1132 45.4829 1132 46.3493Z" fill="#E0E0E0"/>
<path fill-rule="evenodd" clip-rule="evenodd" d="M1121.34 46.3493C1121.34 47.2157 1122.04 47.9168 1122.91 47.9168C1123.77 47.9168 1124.47 47.2157 1124.47 46.3493C1124.47 45.4829 1123.77 44.7817 1122.91 44.7817C1122.04 44.7817 1121.34 45.4829 1121.34 46.3493Z" fill="#E0E0E0"/>
<path fill-rule="evenodd" clip-rule="evenodd" d="M1111.31 46.3493C1111.31 47.2157 1112.01 47.9168 1112.87 47.9168C1113.74 47.9168 1114.44 47.2157 1114.44 46.3493C1114.44 45.4829 1113.74 44.7817 1112.87 44.7817C1112.01 44.7817 1111.31 45.4829 1111.31 46.3493Z" fill="#E0E0E0"/>
<path fill-rule="evenodd" clip-rule="evenodd" d="M1100.65 46.3493C1100.65 47.2157 1101.35 47.9168 1102.21 47.9168C1103.08 47.9168 1103.78 47.2157 1103.78 46.3493C1103.78 45.4829 1103.08 44.7817 1102.21 44.7817C1101.35 44.7817 1100.65 45.4829 1100.65 46.3493Z" fill="#E0E0E0"/>
<path fill-rule="evenodd" clip-rule="evenodd" d="M1089.99 46.3493C1089.99 47.2157 1090.69 47.9168 1091.55 47.9168C1092.42 47.9168 1093.12 47.2157 1093.12 46.3493C1093.12 45.4829 1092.42 44.7817 1091.55 44.7817C1090.69 44.7817 1089.99 45.4829 1089.99 46.3493Z" fill="#E0E0E0"/>
<path fill-rule="evenodd" clip-rule="evenodd" d="M1079.96 46.3493C1079.96 47.2157 1080.66 47.9168 1081.52 47.9168C1082.39 47.9168 1083.09 47.2157 1083.09 46.3493C1083.09 45.4829 1082.39 44.7817 1081.52 44.7817C1080.66 44.7817 1079.96 45.4829 1079.96 46.3493Z" fill="#E0E0E0"/>
<path fill-rule="evenodd" clip-rule="evenodd" d="M1069.3 46.3493C1069.3 47.2157 1070 47.9168 1070.86 47.9168C1071.73 47.9168 1072.43 47.2157 1072.43 46.3493C1072.43 45.4829 1071.73 44.7817 1070.86 44.7817C1070 44.7817 1069.3 45.4829 1069.3 46.3493Z" fill="#E0E0E0"/>
<path fill-rule="evenodd" clip-rule="evenodd" d="M1059.26 46.3493C1059.26 47.2157 1059.97 47.9168 1060.83 47.9168C1061.7 47.9168 1062.4 47.2157 1062.4 46.3493C1062.4 45.4829 1061.7 44.7817 1060.83 44.7817C1059.97 44.7817 1059.26 45.4829 1059.26 46.3493Z" fill="#E0E0E0"/>
<path fill-rule="evenodd" clip-rule="evenodd" d="M1048.6 46.3493C1048.6 47.2157 1049.31 47.9168 1050.17 47.9168C1051.04 47.9168 1051.74 47.2157 1051.74 46.3493C1051.74 45.4829 1051.04 44.7817 1050.17 44.7817C1049.31 44.7817 1048.6 45.4829 1048.6 46.3493Z" fill="#E0E0E0"/>
<path fill-rule="evenodd" clip-rule="evenodd" d="M1132 57.0085C1132 57.8749 1132.7 58.576 1133.57 58.576C1134.43 58.576 1135.13 57.8749 1135.13 57.0085C1135.13 56.142 1134.43 55.4409 1133.57 55.4409C1132.7 55.4409 1132 56.142 1132 57.0085Z" fill="#E0E0E0"/>
<path fill-rule="evenodd" clip-rule="evenodd" d="M1121.34 57.0085C1121.34 57.8749 1122.04 58.576 1122.91 58.576C1123.77 58.576 1124.47 57.8749 1124.47 57.0085C1124.47 56.142 1123.77 55.4409 1122.91 55.4409C1122.04 55.4409 1121.34 56.142 1121.34 57.0085Z" fill="#E0E0E0"/>
<path fill-rule="evenodd" clip-rule="evenodd" d="M1111.31 57.0085C1111.31 57.8749 1112.01 58.576 1112.87 58.576C1113.74 58.576 1114.44 57.8749 1114.44 57.0085C1114.44 56.142 1113.74 55.4409 1112.87 55.4409C1112.01 55.4409 1111.31 56.142 1111.31 57.0085Z" fill="#E0E0E0"/>
<path fill-rule="evenodd" clip-rule="evenodd" d="M1100.65 57.0085C1100.65 57.8749 1101.35 58.576 1102.21 58.576C1103.08 58.576 1103.78 57.8749 1103.78 57.0085C1103.78 56.142 1103.08 55.4409 1102.21 55.4409C1101.35 55.4409 1100.65 56.142 1100.65 57.0085Z" fill="#E0E0E0"/>
<path fill-rule="evenodd" clip-rule="evenodd" d="M1089.99 57.0085C1089.99 57.8749 1090.69 58.576 1091.55 58.576C1092.42 58.576 1093.12 57.8749 1093.12 57.0085C1093.12 56.142 1092.42 55.4409 1091.55 55.4409C1090.69 55.4409 1089.99 56.142 1089.99 57.0085Z" fill="#E0E0E0"/>
<path fill-rule="evenodd" clip-rule="evenodd" d="M1079.96 57.0085C1079.96 57.8749 1080.66 58.576 1081.52 58.576C1082.39 58.576 1083.09 57.8749 1083.09 57.0085C1083.09 56.142 1082.39 55.4409 1081.52 55.4409C1080.66 55.4409 1079.96 56.142 1079.96 57.0085Z" fill="#E0E0E0"/>
<path fill-rule="evenodd" clip-rule="evenodd" d="M1069.3 57.0085C1069.3 57.8749 1070 58.576 1070.86 58.576C1071.73 58.576 1072.43 57.8749 1072.43 57.0085C1072.43 56.142 1071.73 55.4409 1070.86 55.4409C1070 55.4409 1069.3 56.142 1069.3 57.0085Z" fill="#E0E0E0"/>
<path fill-rule="evenodd" clip-rule="evenodd" d="M1059.26 57.0085C1059.26 57.8749 1059.97 58.576 1060.83 58.576C1061.7 58.576 1062.4 57.8749 1062.4 57.0085C1062.4 56.142 1061.7 55.4409 1060.83 55.4409C1059.97 55.4409 1059.26 56.142 1059.26 57.0085Z" fill="#E0E0E0"/>
<path fill-rule="evenodd" clip-rule="evenodd" d="M1048.6 57.0085C1048.6 57.8749 1049.31 58.576 1050.17 58.576C1051.04 58.576 1051.74 57.8749 1051.74 57.0085C1051.74 56.142 1051.04 55.4409 1050.17 55.4409C1049.31 55.4409 1048.6 56.142 1048.6 57.0085Z" fill="#E0E0E0"/>
<path fill-rule="evenodd" clip-rule="evenodd" d="M1038 46.5274C1038 47.4424 1038.7 48.1827 1039.55 48.1827C1040.41 48.1827 1041.1 47.4424 1041.1 46.5274C1041.1 45.6125 1040.41 44.8721 1039.55 44.8721C1038.7 44.8721 1038 45.6125 1038 46.5274Z" fill="#E0E0E0"/>
<path fill-rule="evenodd" clip-rule="evenodd" d="M1038 57.1415C1038 57.9992 1038.7 58.6934 1039.55 58.6934C1040.41 58.6934 1041.1 57.9992 1041.1 57.1415C1041.1 56.2837 1040.41 55.5896 1039.55 55.5896C1038.7 55.5896 1038 56.2837 1038 57.1415Z" fill="#E0E0E0"/>
<path fill-rule="evenodd" clip-rule="evenodd" d="M1132 67.6674C1132 68.5336 1132.7 69.2355 1133.57 69.2355C1134.43 69.2355 1135.13 68.5336 1135.13 67.6674C1135.13 66.8022 1134.43 66.1003 1133.57 66.1003C1132.7 66.1003 1132 66.8022 1132 67.6674Z" fill="#E0E0E0"/>
<path fill-rule="evenodd" clip-rule="evenodd" d="M1121.34 67.6674C1121.34 68.5336 1122.04 69.2355 1122.91 69.2355C1123.77 69.2355 1124.47 68.5336 1124.47 67.6674C1124.47 66.8022 1123.77 66.1003 1122.91 66.1003C1122.04 66.1003 1121.34 66.8022 1121.34 67.6674Z" fill="#E0E0E0"/>
<path fill-rule="evenodd" clip-rule="evenodd" d="M1111.31 67.6674C1111.31 68.5336 1112.01 69.2355 1112.87 69.2355C1113.74 69.2355 1114.44 68.5336 1114.44 67.6674C1114.44 66.8022 1113.74 66.1003 1112.87 66.1003C1112.01 66.1003 1111.31 66.8022 1111.31 67.6674Z" fill="#E0E0E0"/>
<path fill-rule="evenodd" clip-rule="evenodd" d="M1100.65 67.6674C1100.65 68.5336 1101.35 69.2355 1102.21 69.2355C1103.08 69.2355 1103.78 68.5336 1103.78 67.6674C1103.78 66.8022 1103.08 66.1003 1102.21 66.1003C1101.35 66.1003 1100.65 66.8022 1100.65 67.6674Z" fill="#E0E0E0"/>
<path fill-rule="evenodd" clip-rule="evenodd" d="M1089.99 67.6674C1089.99 68.5336 1090.69 69.2355 1091.55 69.2355C1092.42 69.2355 1093.12 68.5336 1093.12 67.6674C1093.12 66.8022 1092.42 66.1003 1091.55 66.1003C1090.69 66.1003 1089.99 66.8022 1089.99 67.6674Z" fill="#E0E0E0"/>
<path fill-rule="evenodd" clip-rule="evenodd" d="M1079.96 67.6674C1079.96 68.5336 1080.66 69.2355 1081.52 69.2355C1082.39 69.2355 1083.09 68.5336 1083.09 67.6674C1083.09 66.8022 1082.39 66.1003 1081.52 66.1003C1080.66 66.1003 1079.96 66.8022 1079.96 67.6674Z" fill="#E0E0E0"/>
<path fill-rule="evenodd" clip-rule="evenodd" d="M1069.3 67.6674C1069.3 68.5336 1070 69.2355 1070.86 69.2355C1071.73 69.2355 1072.43 68.5336 1072.43 67.6674C1072.43 66.8022 1071.73 66.1003 1070.86 66.1003C1070 66.1003 1069.3 66.8022 1069.3 67.6674Z" fill="#E0E0E0"/>
<path fill-rule="evenodd" clip-rule="evenodd" d="M1059.26 67.6674C1059.26 68.5336 1059.97 69.2355 1060.83 69.2355C1061.7 69.2355 1062.4 68.5336 1062.4 67.6674C1062.4 66.8022 1061.7 66.1003 1060.83 66.1003C1059.97 66.1003 1059.26 66.8022 1059.26 67.6674Z" fill="#E0E0E0"/>
<path fill-rule="evenodd" clip-rule="evenodd" d="M1048.6 67.6674C1048.6 68.5336 1049.31 69.2355 1050.17 69.2355C1051.04 69.2355 1051.74 68.5336 1051.74 67.6674C1051.74 66.8022 1051.04 66.1003 1050.17 66.1003C1049.31 66.1003 1048.6 66.8022 1048.6 67.6674Z" fill="#E0E0E0"/>
<path fill-rule="evenodd" clip-rule="evenodd" d="M1132 77.7004C1132 78.5668 1132.7 79.2679 1133.57 79.2679C1134.43 79.2679 1135.13 78.5668 1135.13 77.7004C1135.13 76.8339 1134.43 76.1328 1133.57 76.1328C1132.7 76.1328 1132 76.8339 1132 77.7004Z" fill="#E0E0E0"/>
<path fill-rule="evenodd" clip-rule="evenodd" d="M1121.34 77.7004C1121.34 78.5668 1122.04 79.2679 1122.91 79.2679C1123.77 79.2679 1124.47 78.5668 1124.47 77.7004C1124.47 76.8339 1123.77 76.1328 1122.91 76.1328C1122.04 76.1328 1121.34 76.8339 1121.34 77.7004Z" fill="#E0E0E0"/>
<path fill-rule="evenodd" clip-rule="evenodd" d="M1111.31 77.7004C1111.31 78.5668 1112.01 79.2679 1112.87 79.2679C1113.74 79.2679 1114.44 78.5668 1114.44 77.7004C1114.44 76.8339 1113.74 76.1328 1112.87 76.1328C1112.01 76.1328 1111.31 76.8339 1111.31 77.7004Z" fill="#E0E0E0"/>
<path fill-rule="evenodd" clip-rule="evenodd" d="M1100.65 77.7004C1100.65 78.5668 1101.35 79.2679 1102.21 79.2679C1103.08 79.2679 1103.78 78.5668 1103.78 77.7004C1103.78 76.8339 1103.08 76.1328 1102.21 76.1328C1101.35 76.1328 1100.65 76.8339 1100.65 77.7004Z" fill="#E0E0E0"/>
<path fill-rule="evenodd" clip-rule="evenodd" d="M1089.99 77.7004C1089.99 78.5668 1090.69 79.2679 1091.55 79.2679C1092.42 79.2679 1093.12 78.5668 1093.12 77.7004C1093.12 76.8339 1092.42 76.1328 1091.55 76.1328C1090.69 76.1328 1089.99 76.8339 1089.99 77.7004Z" fill="#E0E0E0"/>
<path fill-rule="evenodd" clip-rule="evenodd" d="M1079.96 77.7004C1079.96 78.5668 1080.66 79.2679 1081.52 79.2679C1082.39 79.2679 1083.09 78.5668 1083.09 77.7004C1083.09 76.8339 1082.39 76.1328 1081.52 76.1328C1080.66 76.1328 1079.96 76.8339 1079.96 77.7004Z" fill="#E0E0E0"/>
<path fill-rule="evenodd" clip-rule="evenodd" d="M1069.3 77.7004C1069.3 78.5668 1070 79.2679 1070.86 79.2679C1071.73 79.2679 1072.43 78.5668 1072.43 77.7004C1072.43 76.8339 1071.73 76.1328 1070.86 76.1328C1070 76.1328 1069.3 76.8339 1069.3 77.7004Z" fill="#E0E0E0"/>
<path fill-rule="evenodd" clip-rule="evenodd" d="M1059.26 77.7004C1059.26 78.5668 1059.97 79.2679 1060.83 79.2679C1061.7 79.2679 1062.4 78.5668 1062.4 77.7004C1062.4 76.8339 1061.7 76.1328 1060.83 76.1328C1059.97 76.1328 1059.26 76.8339 1059.26 77.7004Z" fill="#E0E0E0"/>
<path fill-rule="evenodd" clip-rule="evenodd" d="M1048.6 77.7004C1048.6 78.5668 1049.31 79.2679 1050.17 79.2679C1051.04 79.2679 1051.74 78.5668 1051.74 77.7004C1051.74 76.8339 1051.04 76.1328 1050.17 76.1328C1049.31 76.1328 1048.6 76.8339 1048.6 77.7004Z" fill="#E0E0E0"/>
<path fill-rule="evenodd" clip-rule="evenodd" d="M1038 67.59C1038 68.4477 1038.7 69.1428 1039.55 69.1428C1040.41 69.1428 1041.1 68.4477 1041.1 67.59C1041.1 66.7331 1040.41 66.0381 1039.55 66.0381C1038.7 66.0381 1038 66.7331 1038 67.59Z" fill="#E0E0E0"/>
<path fill-rule="evenodd" clip-rule="evenodd" d="M1038 77.7252C1038 78.583 1038.7 79.2771 1039.55 79.2771C1040.41 79.2771 1041.1 78.583 1041.1 77.7252C1041.1 76.8675 1040.41 76.1733 1039.55 76.1733C1038.7 76.1733 1038 76.8675 1038 77.7252Z" fill="#E0E0E0"/>
<path fill-rule="evenodd" clip-rule="evenodd" d="M1132 88.3595C1132 89.226 1132.7 89.9271 1133.57 89.9271C1134.43 89.9271 1135.13 89.226 1135.13 88.3595C1135.13 87.4931 1134.43 86.792 1133.57 86.792C1132.7 86.792 1132 87.4931 1132 88.3595Z" fill="#E0E0E0"/>
<path fill-rule="evenodd" clip-rule="evenodd" d="M1121.34 88.3595C1121.34 89.226 1122.04 89.9271 1122.91 89.9271C1123.77 89.9271 1124.47 89.226 1124.47 88.3595C1124.47 87.4931 1123.77 86.792 1122.91 86.792C1122.04 86.792 1121.34 87.4931 1121.34 88.3595Z" fill="#E0E0E0"/>
<path fill-rule="evenodd" clip-rule="evenodd" d="M1111.31 88.3595C1111.31 89.226 1112.01 89.9271 1112.87 89.9271C1113.74 89.9271 1114.44 89.226 1114.44 88.3595C1114.44 87.4931 1113.74 86.792 1112.87 86.792C1112.01 86.792 1111.31 87.4931 1111.31 88.3595Z" fill="#E0E0E0"/>
<path fill-rule="evenodd" clip-rule="evenodd" d="M1100.65 88.3595C1100.65 89.226 1101.35 89.9271 1102.21 89.9271C1103.08 89.9271 1103.78 89.226 1103.78 88.3595C1103.78 87.4931 1103.08 86.792 1102.21 86.792C1101.35 86.792 1100.65 87.4931 1100.65 88.3595Z" fill="#E0E0E0"/>
<path fill-rule="evenodd" clip-rule="evenodd" d="M1089.99 88.3595C1089.99 89.226 1090.69 89.9271 1091.55 89.9271C1092.42 89.9271 1093.12 89.226 1093.12 88.3595C1093.12 87.4931 1092.42 86.792 1091.55 86.792C1090.69 86.792 1089.99 87.4931 1089.99 88.3595Z" fill="#E0E0E0"/>
<path fill-rule="evenodd" clip-rule="evenodd" d="M1079.96 88.3595C1079.96 89.226 1080.66 89.9271 1081.52 89.9271C1082.39 89.9271 1083.09 89.226 1083.09 88.3595C1083.09 87.4931 1082.39 86.792 1081.52 86.792C1080.66 86.792 1079.96 87.4931 1079.96 88.3595Z" fill="#E0E0E0"/>
<path fill-rule="evenodd" clip-rule="evenodd" d="M1069.3 88.3595C1069.3 89.226 1070 89.9271 1070.86 89.9271C1071.73 89.9271 1072.43 89.226 1072.43 88.3595C1072.43 87.4931 1071.73 86.792 1070.86 86.792C1070 86.792 1069.3 87.4931 1069.3 88.3595Z" fill="#E0E0E0"/>
<path fill-rule="evenodd" clip-rule="evenodd" d="M1059.26 88.3595C1059.26 89.226 1059.97 89.9271 1060.83 89.9271C1061.7 89.9271 1062.4 89.226 1062.4 88.3595C1062.4 87.4931 1061.7 86.792 1060.83 86.792C1059.97 86.792 1059.26 87.4931 1059.26 88.3595Z" fill="#E0E0E0"/>
<path fill-rule="evenodd" clip-rule="evenodd" d="M1048.6 88.3595C1048.6 89.226 1049.31 89.9271 1050.17 89.9271C1051.04 89.9271 1051.74 89.226 1051.74 88.3595C1051.74 87.4931 1051.04 86.792 1050.17 86.792C1049.31 86.792 1048.6 87.4931 1048.6 88.3595Z" fill="#E0E0E0"/>
<path fill-rule="evenodd" clip-rule="evenodd" d="M1132 99.0185C1132 99.8847 1132.7 100.587 1133.57 100.587C1134.43 100.587 1135.13 99.8847 1135.13 99.0185C1135.13 98.1533 1134.43 97.4514 1133.57 97.4514C1132.7 97.4514 1132 98.1533 1132 99.0185Z" fill="#E0E0E0"/>
<path fill-rule="evenodd" clip-rule="evenodd" d="M1121.34 99.0185C1121.34 99.8847 1122.04 100.587 1122.91 100.587C1123.77 100.587 1124.47 99.8847 1124.47 99.0185C1124.47 98.1533 1123.77 97.4514 1122.91 97.4514C1122.04 97.4514 1121.34 98.1533 1121.34 99.0185Z" fill="#E0E0E0"/>
<path fill-rule="evenodd" clip-rule="evenodd" d="M1111.31 99.0185C1111.31 99.8847 1112.01 100.587 1112.87 100.587C1113.74 100.587 1114.44 99.8847 1114.44 99.0185C1114.44 98.1533 1113.74 97.4514 1112.87 97.4514C1112.01 97.4514 1111.31 98.1533 1111.31 99.0185Z" fill="#E0E0E0"/>
<path fill-rule="evenodd" clip-rule="evenodd" d="M1100.65 99.0185C1100.65 99.8847 1101.35 100.587 1102.21 100.587C1103.08 100.587 1103.78 99.8847 1103.78 99.0185C1103.78 98.1533 1103.08 97.4514 1102.21 97.4514C1101.35 97.4514 1100.65 98.1533 1100.65 99.0185Z" fill="#E0E0E0"/>
<path fill-rule="evenodd" clip-rule="evenodd" d="M1089.99 99.0185C1089.99 99.8847 1090.69 100.587 1091.55 100.587C1092.42 100.587 1093.12 99.8847 1093.12 99.0185C1093.12 98.1533 1092.42 97.4514 1091.55 97.4514C1090.69 97.4514 1089.99 98.1533 1089.99 99.0185Z" fill="#E0E0E0"/>
<path fill-rule="evenodd" clip-rule="evenodd" d="M1079.96 99.0185C1079.96 99.8847 1080.66 100.587 1081.52 100.587C1082.39 100.587 1083.09 99.8847 1083.09 99.0185C1083.09 98.1533 1082.39 97.4514 1081.52 97.4514C1080.66 97.4514 1079.96 98.1533 1079.96 99.0185Z" fill="#E0E0E0"/>
<path fill-rule="evenodd" clip-rule="evenodd" d="M1069.3 99.0185C1069.3 99.8847 1070 100.587 1070.86 100.587C1071.73 100.587 1072.43 99.8847 1072.43 99.0185C1072.43 98.1533 1071.73 97.4514 1070.86 97.4514C1070 97.4514 1069.3 98.1533 1069.3 99.0185Z" fill="#E0E0E0"/>
<path fill-rule="evenodd" clip-rule="evenodd" d="M1059.26 99.0185C1059.26 99.8847 1059.97 100.587 1060.83 100.587C1061.7 100.587 1062.4 99.8847 1062.4 99.0185C1062.4 98.1533 1061.7 97.4514 1060.83 97.4514C1059.97 97.4514 1059.26 98.1533 1059.26 99.0185Z" fill="#E0E0E0"/>
<path fill-rule="evenodd" clip-rule="evenodd" d="M1048.6 99.0185C1048.6 99.8847 1049.31 100.587 1050.17 100.587C1051.04 100.587 1051.74 99.8847 1051.74 99.0185C1051.74 98.1533 1051.04 97.4514 1050.17 97.4514C1049.31 97.4514 1048.6 98.1533 1048.6 99.0185Z" fill="#E0E0E0"/>
<path fill-rule="evenodd" clip-rule="evenodd" d="M1038 88.1742C1038 89.032 1038.7 89.7261 1039.55 89.7261C1040.41 89.7261 1041.1 89.032 1041.1 88.1742C1041.1 87.3164 1040.41 86.6223 1039.55 86.6223C1038.7 86.6223 1038 87.3164 1038 88.1742Z" fill="#E0E0E0"/>
<path fill-rule="evenodd" clip-rule="evenodd" d="M1038 98.7845C1038 99.6994 1038.7 100.441 1039.55 100.441C1040.41 100.441 1041.1 99.6994 1041.1 98.7845C1041.1 97.8705 1040.41 97.1292 1039.55 97.1292C1038.7 97.1292 1038 97.8705 1038 98.7845Z" fill="#E0E0E0"/>
<path fill-rule="evenodd" clip-rule="evenodd" d="M1132 109.051C1132 109.918 1132.7 110.619 1133.57 110.619C1134.43 110.619 1135.13 109.918 1135.13 109.051C1135.13 108.185 1134.43 107.484 1133.57 107.484C1132.7 107.484 1132 108.185 1132 109.051Z" fill="#E0E0E0"/>
<path fill-rule="evenodd" clip-rule="evenodd" d="M1121.34 109.051C1121.34 109.918 1122.04 110.619 1122.91 110.619C1123.77 110.619 1124.47 109.918 1124.47 109.051C1124.47 108.185 1123.77 107.484 1122.91 107.484C1122.04 107.484 1121.34 108.185 1121.34 109.051Z" fill="#E0E0E0"/>
<path fill-rule="evenodd" clip-rule="evenodd" d="M1111.31 109.051C1111.31 109.918 1112.01 110.619 1112.87 110.619C1113.74 110.619 1114.44 109.918 1114.44 109.051C1114.44 108.185 1113.74 107.484 1112.87 107.484C1112.01 107.484 1111.31 108.185 1111.31 109.051Z" fill="#E0E0E0"/>
<path fill-rule="evenodd" clip-rule="evenodd" d="M1100.65 109.051C1100.65 109.918 1101.35 110.619 1102.21 110.619C1103.08 110.619 1103.78 109.918 1103.78 109.051C1103.78 108.185 1103.08 107.484 1102.21 107.484C1101.35 107.484 1100.65 108.185 1100.65 109.051Z" fill="#E0E0E0"/>
<path fill-rule="evenodd" clip-rule="evenodd" d="M1089.99 109.051C1089.99 109.918 1090.69 110.619 1091.55 110.619C1092.42 110.619 1093.12 109.918 1093.12 109.051C1093.12 108.185 1092.42 107.484 1091.55 107.484C1090.69 107.484 1089.99 108.185 1089.99 109.051Z" fill="#E0E0E0"/>
<path fill-rule="evenodd" clip-rule="evenodd" d="M1079.96 109.051C1079.96 109.918 1080.66 110.619 1081.52 110.619C1082.39 110.619 1083.09 109.918 1083.09 109.051C1083.09 108.185 1082.39 107.484 1081.52 107.484C1080.66 107.484 1079.96 108.185 1079.96 109.051Z" fill="#E0E0E0"/>
<path fill-rule="evenodd" clip-rule="evenodd" d="M1069.3 109.051C1069.3 109.918 1070 110.619 1070.86 110.619C1071.73 110.619 1072.43 109.918 1072.43 109.051C1072.43 108.185 1071.73 107.484 1070.86 107.484C1070 107.484 1069.3 108.185 1069.3 109.051Z" fill="#E0E0E0"/>
<path fill-rule="evenodd" clip-rule="evenodd" d="M1059.26 109.051C1059.26 109.918 1059.97 110.619 1060.83 110.619C1061.7 110.619 1062.4 109.918 1062.4 109.051C1062.4 108.185 1061.7 107.484 1060.83 107.484C1059.97 107.484 1059.26 108.185 1059.26 109.051Z" fill="#E0E0E0"/>
<path fill-rule="evenodd" clip-rule="evenodd" d="M1048.6 109.051C1048.6 109.918 1049.31 110.619 1050.17 110.619C1051.04 110.619 1051.74 109.918 1051.74 109.051C1051.74 108.185 1051.04 107.484 1050.17 107.484C1049.31 107.484 1048.6 108.185 1048.6 109.051Z" fill="#E0E0E0"/>
<path fill-rule="evenodd" clip-rule="evenodd" d="M1038 109.385C1038 110.243 1038.7 110.937 1039.55 110.937C1040.41 110.937 1041.1 110.243 1041.1 109.385C1041.1 108.527 1040.41 107.833 1039.55 107.833C1038.7 107.833 1038 108.527 1038 109.385Z" fill="#E0E0E0"/>
<path fill-rule="evenodd" clip-rule="evenodd" d="M1132 119.711C1132 120.576 1132.7 121.278 1133.57 121.278C1134.43 121.278 1135.13 120.576 1135.13 119.711C1135.13 118.844 1134.43 118.143 1133.57 118.143C1132.7 118.143 1132 118.844 1132 119.711Z" fill="#E0E0E0"/>
<path fill-rule="evenodd" clip-rule="evenodd" d="M1121.34 119.711C1121.34 120.576 1122.04 121.278 1122.91 121.278C1123.77 121.278 1124.47 120.576 1124.47 119.711C1124.47 118.844 1123.77 118.143 1122.91 118.143C1122.04 118.143 1121.34 118.844 1121.34 119.711Z" fill="#E0E0E0"/>
<path fill-rule="evenodd" clip-rule="evenodd" d="M1111.31 119.711C1111.31 120.576 1112.01 121.278 1112.87 121.278C1113.74 121.278 1114.44 120.576 1114.44 119.711C1114.44 118.844 1113.74 118.143 1112.87 118.143C1112.01 118.143 1111.31 118.844 1111.31 119.711Z" fill="#E0E0E0"/>
<path fill-rule="evenodd" clip-rule="evenodd" d="M1100.65 119.711C1100.65 120.576 1101.35 121.278 1102.21 121.278C1103.08 121.278 1103.78 120.576 1103.78 119.711C1103.78 118.844 1103.08 118.143 1102.21 118.143C1101.35 118.143 1100.65 118.844 1100.65 119.711Z" fill="#E0E0E0"/>
<path fill-rule="evenodd" clip-rule="evenodd" d="M1089.99 119.711C1089.99 120.576 1090.69 121.278 1091.55 121.278C1092.42 121.278 1093.12 120.576 1093.12 119.711C1093.12 118.844 1092.42 118.143 1091.55 118.143C1090.69 118.143 1089.99 118.844 1089.99 119.711Z" fill="#E0E0E0"/>
<path fill-rule="evenodd" clip-rule="evenodd" d="M1079.96 119.711C1079.96 120.576 1080.66 121.278 1081.52 121.278C1082.39 121.278 1083.09 120.576 1083.09 119.711C1083.09 118.844 1082.39 118.143 1081.52 118.143C1080.66 118.143 1079.96 118.844 1079.96 119.711Z" fill="#E0E0E0"/>
<path fill-rule="evenodd" clip-rule="evenodd" d="M1069.3 119.711C1069.3 120.576 1070 121.278 1070.86 121.278C1071.73 121.278 1072.43 120.576 1072.43 119.711C1072.43 118.844 1071.73 118.143 1070.86 118.143C1070 118.143 1069.3 118.844 1069.3 119.711Z" fill="#E0E0E0"/>
<path fill-rule="evenodd" clip-rule="evenodd" d="M1059.26 119.711C1059.26 120.576 1059.97 121.278 1060.83 121.278C1061.7 121.278 1062.4 120.576 1062.4 119.711C1062.4 118.844 1061.7 118.143 1060.83 118.143C1059.97 118.143 1059.26 118.844 1059.26 119.711Z" fill="#E0E0E0"/>
<path fill-rule="evenodd" clip-rule="evenodd" d="M1048.6 119.711C1048.6 120.576 1049.31 121.278 1050.17 121.278C1051.04 121.278 1051.74 120.576 1051.74 119.711C1051.74 118.844 1051.04 118.143 1050.17 118.143C1049.31 118.143 1048.6 118.844 1048.6 119.711Z" fill="#E0E0E0"/>
<path fill-rule="evenodd" clip-rule="evenodd" d="M1038 119.988C1038 120.902 1038.7 121.644 1039.55 121.644C1040.41 121.644 1041.1 120.902 1041.1 119.988C1041.1 119.073 1040.41 118.333 1039.55 118.333C1038.7 118.333 1038 119.073 1038 119.988Z" fill="#E0E0E0"/>
<path fill-rule="evenodd" clip-rule="evenodd" d="M1132 130.37C1132 131.236 1132.7 131.938 1133.57 131.938C1134.43 131.938 1135.13 131.236 1135.13 130.37C1135.13 129.505 1134.43 128.802 1133.57 128.802C1132.7 128.802 1132 129.505 1132 130.37Z" fill="#E0E0E0"/>
<path fill-rule="evenodd" clip-rule="evenodd" d="M1121.34 130.37C1121.34 131.236 1122.04 131.938 1122.91 131.938C1123.77 131.938 1124.47 131.236 1124.47 130.37C1124.47 129.505 1123.77 128.802 1122.91 128.802C1122.04 128.802 1121.34 129.505 1121.34 130.37Z" fill="#E0E0E0"/>
<path fill-rule="evenodd" clip-rule="evenodd" d="M1111.31 130.37C1111.31 131.236 1112.01 131.938 1112.87 131.938C1113.74 131.938 1114.44 131.236 1114.44 130.37C1114.44 129.505 1113.74 128.802 1112.87 128.802C1112.01 128.802 1111.31 129.505 1111.31 130.37Z" fill="#E0E0E0"/>
<path fill-rule="evenodd" clip-rule="evenodd" d="M1100.65 130.37C1100.65 131.236 1101.35 131.938 1102.21 131.938C1103.08 131.938 1103.78 131.236 1103.78 130.37C1103.78 129.505 1103.08 128.802 1102.21 128.802C1101.35 128.802 1100.65 129.505 1100.65 130.37Z" fill="#E0E0E0"/>
<path fill-rule="evenodd" clip-rule="evenodd" d="M1089.99 130.37C1089.99 131.236 1090.69 131.938 1091.55 131.938C1092.42 131.938 1093.12 131.236 1093.12 130.37C1093.12 129.505 1092.42 128.802 1091.55 128.802C1090.69 128.802 1089.99 129.505 1089.99 130.37Z" fill="#E0E0E0"/>
<path fill-rule="evenodd" clip-rule="evenodd" d="M1079.96 130.37C1079.96 131.236 1080.66 131.938 1081.52 131.938C1082.39 131.938 1083.09 131.236 1083.09 130.37C1083.09 129.505 1082.39 128.802 1081.52 128.802C1080.66 128.802 1079.96 129.505 1079.96 130.37Z" fill="#E0E0E0"/>
<path fill-rule="evenodd" clip-rule="evenodd" d="M1069.3 130.37C1069.3 131.236 1070 131.938 1070.86 131.938C1071.73 131.938 1072.43 131.236 1072.43 130.37C1072.43 129.505 1071.73 128.802 1070.86 128.802C1070 128.802 1069.3 129.505 1069.3 130.37Z" fill="#E0E0E0"/>
<path fill-rule="evenodd" clip-rule="evenodd" d="M1059.26 130.37C1059.26 131.236 1059.97 131.938 1060.83 131.938C1061.7 131.938 1062.4 131.236 1062.4 130.37C1062.4 129.505 1061.7 128.802 1060.83 128.802C1059.97 128.802 1059.26 129.505 1059.26 130.37Z" fill="#E0E0E0"/>
<path fill-rule="evenodd" clip-rule="evenodd" d="M1048.6 130.37C1048.6 131.236 1049.31 131.938 1050.17 131.938C1051.04 131.938 1051.74 131.236 1051.74 130.37C1051.74 129.505 1051.04 128.802 1050.17 128.802C1049.31 128.802 1048.6 129.505 1048.6 130.37Z" fill="#E0E0E0"/>
<path fill-rule="evenodd" clip-rule="evenodd" d="M1038 129.969C1038 130.827 1038.7 131.521 1039.55 131.521C1040.41 131.521 1041.1 130.827 1041.1 129.969C1041.1 129.112 1040.41 128.417 1039.55 128.417C1038.7 128.417 1038 129.112 1038 129.969Z" fill="#E0E0E0"/>
<path fill-rule="evenodd" clip-rule="evenodd" d="M1132 140.403C1132 141.269 1132.7 141.97 1133.57 141.97C1134.43 141.97 1135.13 141.269 1135.13 140.403C1135.13 139.536 1134.43 138.835 1133.57 138.835C1132.7 138.835 1132 139.536 1132 140.403Z" fill="#E0E0E0"/>
<path fill-rule="evenodd" clip-rule="evenodd" d="M1121.34 140.403C1121.34 141.269 1122.04 141.97 1122.91 141.97C1123.77 141.97 1124.47 141.269 1124.47 140.403C1124.47 139.536 1123.77 138.835 1122.91 138.835C1122.04 138.835 1121.34 139.536 1121.34 140.403Z" fill="#E0E0E0"/>
<path fill-rule="evenodd" clip-rule="evenodd" d="M1111.31 140.403C1111.31 141.269 1112.01 141.97 1112.87 141.97C1113.74 141.97 1114.44 141.269 1114.44 140.403C1114.44 139.536 1113.74 138.835 1112.87 138.835C1112.01 138.835 1111.31 139.536 1111.31 140.403Z" fill="#E0E0E0"/>
<path fill-rule="evenodd" clip-rule="evenodd" d="M1100.65 140.403C1100.65 141.269 1101.35 141.97 1102.21 141.97C1103.08 141.97 1103.78 141.269 1103.78 140.403C1103.78 139.536 1103.08 138.835 1102.21 138.835C1101.35 138.835 1100.65 139.536 1100.65 140.403Z" fill="#E0E0E0"/>
<path fill-rule="evenodd" clip-rule="evenodd" d="M1089.99 140.403C1089.99 141.269 1090.69 141.97 1091.55 141.97C1092.42 141.97 1093.12 141.269 1093.12 140.403C1093.12 139.536 1092.42 138.835 1091.55 138.835C1090.69 138.835 1089.99 139.536 1089.99 140.403Z" fill="#E0E0E0"/>
<path fill-rule="evenodd" clip-rule="evenodd" d="M1079.96 140.403C1079.96 141.269 1080.66 141.97 1081.52 141.97C1082.39 141.97 1083.09 141.269 1083.09 140.403C1083.09 139.536 1082.39 138.835 1081.52 138.835C1080.66 138.835 1079.96 139.536 1079.96 140.403Z" fill="#E0E0E0"/>
<path fill-rule="evenodd" clip-rule="evenodd" d="M1069.3 140.403C1069.3 141.269 1070 141.97 1070.86 141.97C1071.73 141.97 1072.43 141.269 1072.43 140.403C1072.43 139.536 1071.73 138.835 1070.86 138.835C1070 138.835 1069.3 139.536 1069.3 140.403Z" fill="#E0E0E0"/>
<path fill-rule="evenodd" clip-rule="evenodd" d="M1059.26 140.403C1059.26 141.269 1059.97 141.97 1060.83 141.97C1061.7 141.97 1062.4 141.269 1062.4 140.403C1062.4 139.536 1061.7 138.835 1060.83 138.835C1059.97 138.835 1059.26 139.536 1059.26 140.403Z" fill="#E0E0E0"/>
<path fill-rule="evenodd" clip-rule="evenodd" d="M1048.6 140.403C1048.6 141.269 1049.31 141.97 1050.17 141.97C1051.04 141.97 1051.74 141.269 1051.74 140.403C1051.74 139.536 1051.04 138.835 1050.17 138.835C1049.31 138.835 1048.6 139.536 1048.6 140.403Z" fill="#E0E0E0"/>
<path fill-rule="evenodd" clip-rule="evenodd" d="M1038 140.565C1038 141.48 1038.7 142.22 1039.55 142.22C1040.41 142.22 1041.1 141.48 1041.1 140.565C1041.1 139.65 1040.41 138.91 1039.55 138.91C1038.7 138.91 1038 139.65 1038 140.565Z" fill="#E0E0E0"/>
</g>
</svg>
